<?xml version="1.0" encoding="UTF-8" standalone="no"?>
<!-- Created with Inkscape (http://www.inkscape.org/) -->
<svg
   xmlns:dc="http://purl.org/dc/elements/1.1/"
   xmlns:cc="http://web.resource.org/cc/"
   xmlns:rdf="http://www.w3.org/1999/02/22-rdf-syntax-ns#"
   xmlns:svg="http://www.w3.org/2000/svg"
   xmlns="http://www.w3.org/2000/svg"
   xmlns:sodipodi="http://sodipodi.sourceforge.net/DTD/sodipodi-0.dtd"
   xmlns:inkscape="http://www.inkscape.org/namespaces/inkscape"
   id="svg2"
   sodipodi:version="0.32"
   inkscape:version="0.45.1"
   width="150"
   height="145"
   version="1.0"
   sodipodi:docbase="C:\Documents and Settings\Alex Broersma.D2KY7761\Desktop"
   sodipodi:docname="State-farm-logo.svg"
   inkscape:output_extension="org.inkscape.output.svg.inkscape">
  <metadata
     id="metadata7">
    <rdf:RDF>
      <cc:Work
         rdf:about="">
        <dc:format>image/svg+xml</dc:format>
        <dc:type
           rdf:resource="http://purl.org/dc/dcmitype/StillImage" />
      </cc:Work>
    </rdf:RDF>
  </metadata>
  <defs
     id="defs5">
    <marker
       orient="auto"
       overflow="visible"
       markerHeight="1"
       markerWidth="1"
       viewBox="0 0 1 1"
       markerUnits="strokeWidth"
       id="DefaultArrow9">
<!-- REF_ARROW_HOLLOWDIAMOND -->      <g
         id="g42"
         transform="scale(0.0092592592)">
        <path
           id="path44"
           d="M 0,45 L -45,0 L 0, -45 L 45, 0 z M 0, 63 L-63, 0 L 0, -63 L 63, 0 z" />
      </g>
    </marker>
    <marker
       orient="auto"
       overflow="visible"
       markerHeight="1"
       markerWidth="1"
       viewBox="0 0 1 1"
       markerUnits="strokeWidth"
       id="DefaultArrow8">
<!-- REF_ARROW_FEATHER2 -->      <g
         id="g37"
         transform="scale(0.0092592592)">
        <path
           id="path39"
           d="M -36,0 L 18,-54 L 54,-54 L 18,-18 L 27,-18 L 63,-54 L 99,-54 L 63,-18 L 72,-18 L 108,-54 L 144,-54 L 90,0 L 144,54 L 108,54 L 72,18 L 63,18 L 99,54 L 63,54 L 27,18 L 18,18 L 54,54 L 18,54 z" />
      </g>
    </marker>
    <marker
       orient="auto"
       overflow="visible"
       markerHeight="1"
       markerWidth="1"
       viewBox="0 0 1 1"
       markerUnits="strokeWidth"
       id="DefaultArrow7">
<!-- REF_ARROW_FEATHER -->      <g
         id="g32"
         transform="scale(0.0092592592)">
        <path
           id="path34"
           d="M 18,-54 L 108,-54 L 63,0 L 108,54 L 18, 54 L -36,0 z" />
      </g>
    </marker>
    <marker
       orient="auto"
       overflow="visible"
       markerHeight="1"
       markerWidth="1"
       viewBox="0 0 1 1"
       markerUnits="strokeWidth"
       id="DefaultArrow6">
<!-- REF_ARROW_DIAMOND -->      <g
         id="g27"
         transform="scale(0.0092592592)">
        <path
           id="path29"
           d="M -63,0 L 0,63 L 63,0 L 0,-63 z" />
      </g>
    </marker>
    <marker
       orient="auto"
       overflow="visible"
       markerHeight="1"
       markerWidth="1"
       viewBox="0 0 1 1"
       markerUnits="strokeWidth"
       id="DefaultArrow5">
<!-- REF_ARROW_SPOT -->      <g
         id="g22"
         transform="scale(0.0092592592)">
        <path
           id="path24"
           d="M -54, 0 C -54,29.807 -29.807,54 0,54 C 29.807,54 54,29.807 54,0 C 54,-29.807 29.807,-54 0,-54 C -29.807,-54 -54,-29.807 -54,0 z" />
      </g>
    </marker>
    <marker
       orient="auto"
       overflow="visible"
       markerHeight="1"
       markerWidth="1"
       viewBox="0 0 1 1"
       markerUnits="strokeWidth"
       id="DefaultArrow4">
<!-- REF_ARROW_ROUNDED -->      <g
         id="g17"
         transform="scale(0.0092592592)">
        <path
           id="path19"
           d="M -9,0 L -9,-45 C -9,-51.708 2.808,-56.580 9,-54 L 117,-9 C 120.916,-7.369 126.000,-4.242 126,0 C 126,4.242 120.916,7.369 117,9 L 9,54 C 2.808,56.580 -9,51.708 -9,45 z" />
      </g>
    </marker>
    <marker
       orient="auto"
       overflow="visible"
       markerHeight="1"
       markerWidth="1"
       viewBox="0 0 1 1"
       markerUnits="strokeWidth"
       id="DefaultArrow3">
<!-- REF_ARROW_ANGLED -->      <g
         id="g12"
         transform="scale(0.0092592592)">
        <path
           id="path14"
           d="M -27 54 L -9 0 L -27 -54 L 135 0 z" />
      </g>
    </marker>
    <marker
       orient="auto"
       overflow="visible"
       markerHeight="1"
       markerWidth="1"
       viewBox="0 0 1 1"
       markerUnits="strokeWidth"
       id="DefaultArrow2">
<!-- REF_ARROW_STRAIGHT (-2) -->      <g
         id="g7"
         transform="scale(0.0092592592)">
<!-- 1/108 -->        <path
           id="path9"
           d="M -9 54 L -9 -54 L 117 0 z" />
      </g>
    </marker>
  </defs>
  <sodipodi:namedview
     inkscape:window-height="844"
     inkscape:window-width="1440"
     inkscape:pageshadow="2"
     inkscape:pageopacity="0.0"
     guidetolerance="10.0"
     gridtolerance="10.0"
     objecttolerance="10.0"
     borderopacity="1.0"
     bordercolor="#666666"
     pagecolor="#ffffff"
     id="base"
     inkscape:zoom="1.8101934"
     inkscape:cx="13.692829"
     inkscape:cy="132.90349"
     inkscape:window-x="-4"
     inkscape:window-y="-4"
     inkscape:current-layer="svg2" />
  <path
     style="font-size:16px;opacity:0;fill:#ffffff;fill-rule:evenodd;stroke:none;stroke-width:0.50099999;stroke-linejoin:bevel;font-family:Times New Roman"
     id="path51"
     d="M -6.0935201,32.285192 L 35.804478,32.285192 C 40.947478,32.285192 45.115478,36.453192 45.115478,41.596192 L 45.115478,81.406192 C 45.115478,86.059192 41.704478,89.913192 37.245478,90.605192 L -7.5325201,90.605192 C -11.990521,89.913192 -15.404519,86.059192 -15.404519,81.406192 L -15.404519,41.596192 C -15.404519,36.453192 -11.235521,32.285192 -6.0935201,32.285192" />
  <path
     style="font-size:16px;fill:#ff0000;fill-rule:evenodd;stroke:none;stroke-width:0.50099999;stroke-linejoin:bevel;font-family:Times New Roman"
     id="path75"
     d="M 143.27647,123.91543 C 143.27647,131.6946 137.02359,137.99766 129.31233,137.99766 L 20.827183,137.99766 C 13.113336,137.99766 6.8604648,131.6946 6.8604648,123.91543 L 6.8604648,21.184042 C 6.8604648,13.404868 13.113336,7.0966647 20.827183,7.0966647 L 129.31233,7.0966647 C 137.02359,7.0966647 143.27647,13.404868 143.27647,21.184042 L 143.27647,123.91543 L 143.27647,123.91543 M 129.13741,0.23556167 L 20.999516,0.23556167 C 9.4326044,0.23556167 0.054587514,9.6914372 0.054587514,21.361484 L 0.054587514,123.73799 C 0.054587514,135.40803 9.4326044,144.86391 20.999516,144.86391 L 129.13741,144.86391 C 140.7069,144.86391 150.0875,135.40803 150.0875,123.73799 L 150.0875,21.361484 C 150.0875,9.6914372 140.7069,0.23556167 129.13741,0.23556167" />
  <path
     style="font-size:16px;fill:#ff0000;fill-rule:evenodd;stroke:none;stroke-width:0.50099999;stroke-linejoin:bevel;font-family:Times New Roman"
     id="path53"
     d="M 73.460678,114.85404 L 72.609618,114.85404 L 72.589233,112.67873 L 73.437745,112.67873 C 74.986981,112.85047 74.920731,114.72462 73.460678,114.85404 L 73.460678,114.85404 M 75.226501,116.64108 C 78.454925,115.44889 77.450979,110.25204 73.916785,110.29187 L 69.79908,110.29187 L 69.79908,120.5188 L 72.589233,120.5188 L 72.589233,117.21851 L 74.964048,120.5188 L 78.059971,120.5188 L 75.226501,116.64108" />
  <path
     style="font-size:16px;fill:#ff0000;fill-rule:evenodd;stroke:none;stroke-width:0.50099999;stroke-linejoin:bevel;font-family:Times New Roman"
     id="path55"
     d="M 47.903387,110.05791 C 44.611261,110.05791 42.73587,115.10791 47.381029,116.36481 C 50.935608,117.44749 47.816752,119.45106 45.505639,117.61922 L 44.437991,119.42866 C 45.375686,120.77516 51.414648,122.1142 51.91662,117.36535 C 51.697485,113.50754 47.184827,114.57528 47.467664,113.08443 C 47.717376,111.77775 49.386372,112.16602 50.45402,112.91518 L 51.480898,110.99623 C 51.480898,110.99623 49.473007,109.86377 47.903387,110.05791" />
  <path
     style="font-size:16px;fill:#ff0000;fill-rule:evenodd;stroke:none;stroke-width:0.50099999;stroke-linejoin:bevel;font-family:Times New Roman"
     id="path57"
     d="M 85.344946,116.42952 L 86.305574,113.91323 L 87.261106,116.42952 L 85.344946,116.42952 L 85.344946,116.42952 M 87.699377,110.29187 L 84.906676,110.29187 L 81.071808,120.5188 L 83.861961,120.5188 L 84.560136,118.72679 L 88.048464,118.72679 L 88.74664,120.5188 L 91.539341,120.5188 L 87.699377,110.29187" />
  <path
     style="font-size:16px;fill:#ff0000;fill-rule:evenodd;stroke:none;stroke-width:0.50099999;stroke-linejoin:bevel;font-family:Times New Roman"
     id="path59"
     d="M 122.41449,110.29187 L 122.41449,120.5188 L 128.17061,120.5188 L 128.17061,118.13194 L 125.20464,118.13194 L 125.20464,116.59877 L 127.99734,116.59877 L 127.99734,114.2119 L 125.20464,114.2119 L 125.20464,112.67873 L 128.17061,112.67873 L 128.17061,110.29187 L 122.41449,110.29187" />
  <path
     style="font-size:16px;fill:#ff0000;fill-rule:evenodd;stroke:none;stroke-width:0.50099999;stroke-linejoin:bevel;font-family:Times New Roman"
     id="path61"
     d="M 22.022488,110.29187 L 22.022488,120.5188 L 24.810093,120.5188 L 24.810093,110.29187 L 22.022488,110.29187" />
  <path
     style="font-size:16px;fill:#ff0000;fill-rule:evenodd;stroke:none;stroke-width:0.50099999;stroke-linejoin:bevel;font-family:Times New Roman"
     id="path63"
     d="M 37.677922,116.47183 L 32.706608,110.29187 L 29.913907,110.29187 L 29.913907,120.5188 L 32.706608,120.5188 L 32.706608,114.29901 L 37.677922,120.5188 L 40.470623,120.5188 L 40.470623,110.29187 L 37.677922,110.29187 L 37.677922,116.47183" />
  <path
     style="font-size:16px;fill:#ff0000;fill-rule:evenodd;stroke:none;stroke-width:0.50099999;stroke-linejoin:bevel;font-family:Times New Roman"
     id="path65"
     d="M 102.87577,116.47183 L 97.904457,110.29187 L 95.114304,110.29187 L 95.114304,120.5188 L 97.904457,120.5188 L 97.904457,114.29901 L 102.87577,120.5188 L 105.66847,120.5188 L 105.66847,110.29187 L 102.87577,110.29187 L 102.87577,116.47183" />
  <path
     style="font-size:16px;fill:#ff0000;fill-rule:evenodd;stroke:none;stroke-width:0.50099999;stroke-linejoin:bevel;font-family:Times New Roman"
     id="path67"
     d="M 62.338288,116.68339 C 62.338288,118.56003 58.852507,118.56003 58.852507,116.66099 L 58.852507,110.29187 L 56.059806,110.29187 L 56.059806,116.93975 C 56.408894,121.71099 64.781901,121.71099 65.130989,116.93726 L 65.130989,110.29187 L 62.338288,110.29187 L 62.338288,116.68339" />
  <path
     style="font-size:16px;fill:#ff0000;fill-rule:evenodd;stroke:none;stroke-width:0.50099999;stroke-linejoin:bevel;font-family:Times New Roman"
     id="path69"
     d="M 117.44317,110.59303 C 117.44317,110.59303 116.43923,109.99569 115.04288,109.97578 C 108.30574,110.33418 107.80377,120.30476 114.91292,120.81498 C 116.30673,120.93943 117.44317,120.38938 117.44317,120.38938 L 117.44317,117.61922 C 116.26596,118.3435 115.4149,118.30118 115.4149,118.30118 C 111.9495,118.23896 111.16214,112.89278 115.28494,112.46718 C 116.54879,112.38006 117.44317,113.29598 117.44317,113.29598 L 117.44317,110.59303" />
  <g
     id="g3634"
     transform="matrix(0.7796738,0,0,0.7744357,27.278772,28.135762)">
    <path
       d="M 128.83566,131.52975 C 126.37421,131.52975 124.37651,129.58093 124.37651,127.17166 C 124.37651,124.76738 126.37421,122.81856 128.83566,122.81856 C 131.29966,122.81856 133.29226,124.76738 133.29226,127.17166 C 133.29226,129.58093 131.29966,131.52975 128.83566,131.52975 L 128.83566,131.52975 M 128.82547,122.28593 C 126.0557,122.28593 123.81084,124.47866 123.81084,127.18411 C 123.81084,129.88956 126.0557,132.08229 128.82547,132.08229 C 131.59269,132.08229 133.8401,129.88956 133.8401,127.18411 C 133.8401,124.47866 131.59269,122.28593 128.82547,122.28593"
       id="path71"
       style="font-size:16px;fill:#ff0000;fill-rule:evenodd;stroke:none;stroke-width:0.50099999;stroke-linejoin:bevel;font-family:Times New Roman" />
    <path
       d="M 127.99734,126.7361 L 127.99734,125.13822 L 129.15162,125.13822 C 130.15812,125.03369 130.59129,126.54446 129.12869,126.7361 L 127.99734,126.7361 L 127.99734,126.7361 M 129.76316,127.18411 C 131.1799,126.71619 131.02701,124.43635 129.06753,124.50106 L 127.34248,124.50106 L 127.34248,129.61329 L 127.99734,129.61329 L 127.99734,127.37575 L 129.12869,127.37575 L 130.06893,129.61329 L 130.78749,129.61329 L 129.76316,127.18411"
       id="path73"
       style="font-size:16px;fill:#ff0000;fill-rule:evenodd;stroke:none;stroke-width:0.50099999;stroke-linejoin:bevel;font-family:Times New Roman" />
  </g>
  <path
     style="font-size:16px;fill:#ff0000;fill-rule:evenodd;stroke:none;stroke-width:0.50099999;stroke-linejoin:bevel;font-family:Times New Roman"
     id="path79"
     d="M 53.509173,21.945468 L 53.509173,24.329845 L 55.603699,24.329845 L 55.603699,32.167427 L 58.393852,32.167427 L 58.393852,24.329845 L 60.442512,24.329845 L 60.442512,21.945468 L 53.509173,21.945468" />
  <path
     style="font-size:16px;fill:#ff0000;fill-rule:evenodd;stroke:none;stroke-width:0.50099999;stroke-linejoin:bevel;font-family:Times New Roman"
     id="path81"
     d="M 32.357521,21.945468 L 32.357521,24.329845 L 34.449498,24.329845 L 34.449498,32.167427 L 37.242199,32.167427 L 37.242199,24.329845 L 39.29086,24.329845 L 39.29086,21.945468 L 32.357521,21.945468" />
  <path
     style="font-size:16px;fill:#ff0000;fill-rule:evenodd;stroke:none;stroke-width:0.50099999;stroke-linejoin:bevel;font-family:Times New Roman"
     id="path83"
     d="M 45.398619,28.078145 L 46.356699,25.564345 L 47.317327,28.078145 L 45.398619,28.078145 L 45.398619,28.078145 M 47.750502,21.945468 L 44.960349,21.945468 L 41.122933,32.167427 L 43.913086,32.167427 L 44.611261,30.3779 L 48.099589,30.3779 L 48.797764,32.167427 L 51.587917,32.167427 L 47.750502,21.945468" />
  <path
     style="font-size:16px;fill:#ff0000;fill-rule:evenodd;stroke:none;stroke-width:0.50099999;stroke-linejoin:bevel;font-family:Times New Roman"
     id="path85"
     d="M 63.757571,21.945468 L 63.757571,32.167427 L 69.513695,32.167427 L 69.513695,29.78305 L 66.547724,29.78305 L 66.547724,28.247391 L 69.337877,28.247391 L 69.337877,25.860525 L 66.547724,25.860525 L 66.547724,24.329845 L 69.513695,24.329845 L 69.513695,21.945468 L 63.757571,21.945468" />
  <path
     style="font-size:16px;fill:#ff0000;fill-rule:evenodd;stroke:none;stroke-width:0.50099999;stroke-linejoin:bevel;font-family:Times New Roman"
     id="path87"
     d="M 25.464951,21.751333 C 22.172825,21.751333 20.297435,26.798845 24.942594,28.055745 C 28.497172,29.1434 25.378316,31.144484 23.067203,29.315134 L 21.999556,31.124573 C 22.937251,32.466096 28.976212,33.80762 29.478185,29.058777 C 29.259049,25.203453 24.746391,26.266218 25.029228,24.777849 C 25.276393,23.468682 26.947936,23.859441 28.018132,24.606114 L 29.042462,22.689652 C 29.042462,22.689652 27.037119,21.559687 25.464951,21.751333" />
  <path
     style="font-size:16px;fill:#ff0000;fill-rule:evenodd;stroke:none;stroke-width:0.50099999;stroke-linejoin:bevel;font-family:Times New Roman"
     id="path89"
     d="M 82.073205,21.945468 L 82.073205,32.167427 L 84.865906,32.167427 L 84.865906,28.247391 L 87.656059,28.247391 L 87.656059,25.860525 L 84.865906,25.860525 L 84.865906,24.329845 L 87.831877,24.329845 L 87.831877,21.945468 L 82.073205,21.945468" />
  <path
     style="font-size:16px;fill:#ff0000;fill-rule:evenodd;stroke:none;stroke-width:0.50099999;stroke-linejoin:bevel;font-family:Times New Roman"
     id="path91"
     d="M 94.459446,28.078145 L 95.417526,25.564345 L 96.378154,28.078145 L 94.459446,28.078145 L 94.459446,28.078145 M 96.813876,21.945468 L 94.021175,21.945468 L 90.186307,32.167427 L 92.97646,32.167427 L 93.674636,30.3779 L 97.160416,30.3779 L 97.861139,32.167427 L 100.65129,32.167427 L 96.813876,21.945468" />
  <path
     style="font-size:16px;fill:#ff0000;fill-rule:evenodd;stroke:none;stroke-width:0.50099999;stroke-linejoin:bevel;font-family:Times New Roman"
     id="path93"
     d="M 115.17538,32.167427 L 116.91827,21.945468 L 119.5377,21.945468 L 121.62713,26.778934 L 123.72165,21.945468 L 126.34108,21.945468 L 128.08397,32.167427 L 125.38046,32.167427 L 124.41983,26.778934 L 122.23867,32.167427 L 121.01813,32.167427 L 118.83697,26.778934 L 117.87889,32.167427 L 115.17538,32.167427" />
  <path
     style="font-size:16px;fill:#ff0000;fill-rule:evenodd;stroke:none;stroke-width:0.50099999;stroke-linejoin:bevel;font-family:Times New Roman"
     id="path95"
     d="M 107.47761,26.502665 L 106.62655,26.502665 L 106.60362,24.329845 L 107.45468,24.329845 C 109.00391,24.499091 108.93766,26.37573 107.47761,26.502665 L 107.47761,26.502665 M 109.24343,28.292192 C 112.46931,27.097514 111.46791,21.900667 107.93627,21.945468 L 103.81347,21.945468 L 103.81347,32.167427 L 106.60362,32.167427 L 106.60362,28.86713 L 108.98353,32.167427 L 112.07945,32.167427 L 109.24343,28.292192" />
  <path
     style="font-size:16px;fill:#ff0000;fill-rule:evenodd;stroke:none;stroke-width:0.50099999;stroke-linejoin:bevel;font-family:Times New Roman"
     id="path97"
     d="M 61.09737,65.222659 C 56.561779,64.03296 52.897633,64.331629 52.897633,64.331629 C 51.4121,62.128942 50.543203,59.423496 50.543203,56.832539 C 50.543203,47.397076 61.535641,39.75114 75.096549,39.75114 C 88.657457,39.75114 99.649895,47.397076 99.649895,56.832539 C 99.649895,59.423496 98.735132,62.126453 97.252147,64.331629 C 97.252147,64.331629 93.542135,64.03296 89.05241,65.222659 C 92.19165,63.348509 94.416128,60.837197 94.416128,56.745427 C 94.416128,49.94821 85.76538,44.432782 75.096549,44.432782 C 64.425169,44.432782 55.774421,49.94821 55.774421,56.745427 C 55.774421,60.837197 57.955582,63.348509 61.09737,65.222659" />
  <path
     style="font-size:16px;fill:#ff0000;fill-rule:evenodd;stroke:none;stroke-width:0.50099999;stroke-linejoin:bevel;font-family:Times New Roman"
     id="path99"
     d="M 69.819465,68.545356 C 73.307793,69.227318 76.798669,69.227318 80.28445,68.545356 C 77.147757,70.337372 75.050683,72.803883 75.050683,72.803883 C 75.050683,72.803883 72.958705,70.337372 69.819465,68.545356" />
  <path
     style="font-size:16px;fill:#ff0000;fill-rule:evenodd;stroke:none;stroke-width:0.50099999;stroke-linejoin:bevel;font-family:Times New Roman"
     id="path101"
     d="M 71.671923,79.389543 C 69.740474,73.93136 62.351028,69.993902 53.160086,69.993902 C 42.511639,69.993902 33.886372,75.469507 33.886372,82.219435 C 33.886372,88.974341 42.511639,94.447457 53.160086,94.447457 C 63.803436,94.447457 72.4338,89.016652 72.4338,82.261747 C 72.4338,72.853662 83.408402,65.222659 96.943829,65.222659 C 110.4818,65.222659 121.45386,72.853662 121.45386,82.261747 C 121.45386,91.67481 110.4818,99.303323 96.943829,99.303323 C 87.882839,99.303323 79.904785,95.866136 75.662224,90.783779 C 78.019202,87.928998 78.256174,85.522221 78.256174,85.522221 C 80.154497,90.422887 87.808944,94.447457 96.943829,94.447457 C 107.58973,94.447457 116.22009,88.974341 116.22009,82.219435 C 116.22009,75.469507 107.58973,69.993902 96.943829,69.993902 C 86.29793,69.993902 77.670114,75.511819 77.670114,82.261747 C 77.670114,91.67481 66.695513,99.303323 53.160086,99.303323 C 39.622111,99.303323 28.650057,91.67481 28.650057,82.261747 C 28.650057,72.853662 39.622111,65.222659 53.160086,65.222659 C 62.251653,65.222659 70.07937,68.629979 74.311739,73.742203 C 71.913991,76.596984 71.671923,79.389543 71.671923,79.389543" />
  <path
     style="font-size:16px;fill:#ff0000;fill-rule:evenodd;stroke:none;stroke-width:0.50099999;stroke-linejoin:bevel;font-family:Times New Roman"
     id="path103"
     d="M 86.020189,56.832539 C 84.906676,56.832539 83.948596,59.854077 84.932156,60.239859 C 85.910621,60.239859 87.047067,57.258143 86.020189,56.832539" />
  <path
     style="font-size:16px;fill:#ff0000;fill-rule:evenodd;stroke:none;stroke-width:0.50099999;stroke-linejoin:bevel;font-family:Times New Roman"
     id="path105"
     d="M 67.047148,57.745969 L 67.047148,55.510927 L 65.283874,57.745969 L 67.047148,57.745969" />
  <path
     style="font-size:16px;fill:#ff0000;fill-rule:evenodd;stroke:none;stroke-width:0.50099999;stroke-linejoin:bevel;font-family:Times New Roman"
     id="path107"
     d="M 84.667156,61.026355 C 80.786422,60.710263 82.009503,55.61795 86.216391,56.043554 C 90.405443,56.55627 88.660005,61.367335 84.667156,61.026355 L 84.667156,61.026355 M 81.397963,59.428473 L 81.899935,59.684831 C 80.373633,62.323077 78.149154,60.565906 78.518627,59.241805 L 79.216802,57.001785 L 78.454925,57.001785 L 78.719925,56.240178 L 79.479255,56.237689 L 80.024545,54.510385 L 82.29234,54.510385 L 81.74705,56.237689 L 82.508928,56.237689 L 82.249023,57.001785 L 81.484598,57.001785 L 80.781326,59.239316 C 80.59022,59.990967 80.875605,60.30457 81.397963,59.428473 L 81.397963,59.428473 M 74.288806,60.239859 C 72.762503,61.880051 70.604275,60.565906 70.976295,59.241805 L 71.585288,57.300454 C 71.689759,56.964451 71.432403,57.001785 71.432403,57.001785 L 71.098603,56.996807 L 71.3687,56.237689 L 74.202171,56.237689 L 73.236447,59.239316 C 73.04534,59.990967 73.633948,60.28217 74.158853,59.406073 L 75.162799,56.237689 L 77.450979,56.237689 L 76.482707,59.239316 C 76.294149,59.990967 76.579534,60.30457 77.101892,59.428473 L 77.626797,59.684831 C 76.482707,61.658538 74.808615,61.153289 74.288806,60.239859 L 74.288806,60.239859 M 69.929033,60.837197 L 66.068684,60.837197 L 66.331137,60.070613 L 66.876427,60.070613 C 66.876427,60.070613 67.070081,60.005901 67.070081,59.64252 L 67.070081,58.515043 L 64.715651,58.515043 L 63.930841,59.493185 C 63.474733,59.941189 63.681128,60.070613 63.910456,60.070613 L 64.389496,60.070613 L 64.127043,60.837197 L 61.143236,60.837197 L 61.400592,60.070613 L 61.838863,60.070613 C 61.838863,60.070613 62.274585,60.155236 62.710308,59.64252 L 67.115947,54.020069 L 69.36081,52.934904 L 69.36081,59.600208 C 69.36081,59.600208 69.409223,60.070613 69.623262,60.070613 L 70.191485,60.070613 L 69.929033,60.837197 L 69.929033,60.837197 M 75.050683,46.478667 C 65.008681,46.478667 56.997502,51.222533 56.997502,57.176009 C 56.997502,63.124507 64.965363,67.950506 75.009914,67.950506 C 85.051916,67.950506 93.195596,63.124507 93.195596,57.176009 C 93.195596,51.222533 85.097782,46.478667 75.050683,46.478667" />
  <path
     style="font-size:16px;fill:#ff0000;fill-rule:evenodd;stroke:none;stroke-width:0.50099999;stroke-linejoin:bevel;font-family:Times New Roman"
     id="path109"
     d="M 60.55208,83.775005 C 60.470541,84.362388 60.577561,84.658568 60.944485,84.805414 C 61.316506,85.031905 62.032517,85.141417 62.970213,84.479367 L 63.38555,85.076705 C 62.710308,85.542132 61.74968,85.850757 60.682032,85.758667 C 56.801299,85.440087 58.021832,80.352752 62.231268,80.775867 C 66.002434,81.308494 64.565314,84.693413 60.55208,83.775005 L 60.55208,83.775005 M 57.629427,81.754009 L 56.256009,86.032447 C 55.537449,88.377002 51.786668,90.017195 51.175128,87.779663 C 51.001858,86.649697 52.854316,86.184271 53.027585,87.757263 C 53.269653,88.140555 53.65951,86.818943 53.921963,86.184271 L 55.297929,81.754009 L 54.576821,81.754009 L 54.836726,80.984935 L 55.537449,80.984935 C 56.059806,78.919139 57.473994,78.164998 57.935197,77.983308 C 59.178662,77.490503 60.358426,78.028108 60.399195,78.814604 C 60.442512,79.643412 59.39525,80.049104 58.895825,79.451766 C 58.536545,79.028651 58.895825,78.963939 58.697074,78.814604 C 58.526353,78.685181 58.218034,79.028651 57.825629,80.984935 L 58.546737,80.984935 L 58.284285,81.754009 L 57.629427,81.754009 L 57.629427,81.754009 M 50.130413,83.99154 L 50.762338,82.050189 C 50.869357,81.716675 50.606905,81.754009 50.606905,81.754009 L 50.275654,81.746542 L 50.517722,80.984935 L 53.356288,80.984935 L 52.388016,83.989051 C 52.199458,84.740702 52.484843,85.056794 53.007201,84.180697 L 53.509173,84.437055 C 51.982871,87.070323 49.758392,85.310663 50.130413,83.99154 L 50.130413,83.99154 M 48.647427,85.584443 L 41.581588,85.584443 L 41.821108,84.820348 L 42.516735,84.820348 C 42.516735,84.820348 42.78938,84.83777 42.97539,84.24292 L 44.570492,79.197897 C 44.570492,79.197897 44.843137,78.685181 44.371741,78.685181 L 43.739816,78.685181 L 44.022653,77.918596 L 48.405359,77.918596 L 48.122522,78.685181 L 47.600165,78.685181 C 47.600165,78.685181 47.381029,78.685181 47.205211,79.070962 L 45.592274,84.158297 C 45.332369,84.820348 45.541312,84.820348 45.745159,84.820348 L 46.270064,84.820348 C 47.773434,84.456967 48.953198,82.946197 48.953198,82.946197 L 49.539257,82.946197 L 48.647427,85.584443 L 48.647427,85.584443 M 52.869604,77.873796 C 54.439224,78.003219 54.222637,80.131238 52.543449,80.17355 C 51.103781,80.071505 51.170031,77.893707 52.869604,77.873796 L 52.869604,77.873796 M 53.160086,71.955165 C 43.115535,71.955165 35.104356,76.694052 35.104356,82.647528 C 35.104356,88.598515 43.072218,93.422025 53.116768,93.422025 C 63.158771,93.422025 71.30245,88.598515 71.30245,82.647528 C 71.30245,76.694052 63.202088,71.955165 53.160086,71.955165" />
  <path
     style="font-size:16px;fill:#ff0000;fill-rule:evenodd;stroke:none;stroke-width:0.50099999;stroke-linejoin:bevel;font-family:Times New Roman"
     id="path111"
     d="M 62.012133,81.579785 C 61.16362,81.579785 60.284531,83.327001 61.446458,83.222466 C 61.9892,83.197577 62.621125,81.754009 62.012133,81.579785" />
  <path
     style="font-size:16px;fill:#ff0000;fill-rule:evenodd;stroke:none;stroke-width:0.50099999;stroke-linejoin:bevel;font-family:Times New Roman"
     id="path113"
     d="M 105.97169,81.579785 C 105.12318,81.579785 104.24409,83.327001 105.40347,83.222466 C 105.95131,83.197577 106.58323,81.754009 105.97169,81.579785" />
  <path
     style="font-size:16px;fill:#ff0000;fill-rule:evenodd;stroke:none;stroke-width:0.50099999;stroke-linejoin:bevel;font-family:Times New Roman"
     id="path115"
     d="M 104.51164,83.775005 C 104.4301,84.362388 104.53712,84.658568 104.90405,84.805414 C 105.27607,85.031905 105.99463,85.141417 106.93232,84.479367 L 107.34511,85.076705 C 106.67242,85.542132 105.71179,85.850757 104.64414,85.758667 C 100.76086,85.440087 101.98139,80.352752 106.19083,80.775867 C 109.96454,81.308494 108.52487,84.693413 104.51164,83.775005 L 104.51164,83.775005 M 100.78379,82.455882 C 100.3761,82.0029 100.17225,82.498193 100.17225,82.498193 L 99.19124,85.584443 L 96.920896,85.584443 L 98.077726,82.050189 C 98.189842,81.716675 97.927389,81.754009 97.927389,81.754009 L 97.377003,81.746542 L 97.621619,80.984935 L 99.932732,80.984935 C 100.41432,81.072047 100.0423,81.432939 100.47802,81.263693 C 101.13033,80.452308 102.33558,80.838089 102.37635,81.579785 C 102.4375,82.861574 101.10995,82.819263 100.78379,82.455882 L 100.78379,82.455882 M 95.435362,80.17355 C 93.995694,80.071505 94.061945,77.901174 95.761517,77.876285 C 97.333686,78.003219 97.11455,80.131238 95.435362,80.17355 L 95.435362,80.17355 M 93.022326,83.99154 L 93.654251,82.050189 C 93.761271,81.716675 93.501366,81.754009 93.501366,81.754009 L 93.167567,81.746542 L 93.414731,80.984935 L 96.248201,80.984935 L 95.282477,83.989051 C 95.091371,84.740702 95.376756,85.056794 95.899114,84.180697 L 96.401087,84.437055 C 94.874784,87.070323 92.647757,85.310663 93.022326,83.99154 L 93.022326,83.99154 M 90.9278,78.685181 L 90.685732,78.685181 C 90.685732,78.685181 90.469145,78.685181 90.293327,79.070962 L 89.53145,81.475251 C 89.53145,81.475251 90.532847,81.754009 91.144387,80.474708 L 91.865495,80.474708 L 90.818233,83.710293 L 90.140442,83.710293 C 90.140442,83.710293 90.278039,82.149746 89.309766,82.241835 L 88.703322,84.158297 C 88.440869,84.820348 88.649812,84.820348 88.856207,84.820348 L 89.66395,84.820348 L 89.401497,85.584443 L 84.667156,85.584443 L 84.932156,84.820348 L 85.627784,84.820348 C 85.627784,84.820348 85.902977,84.832792 86.083891,84.24292 L 87.656059,79.197897 C 87.656059,79.197897 87.931252,78.685181 87.459857,78.685181 L 86.827932,78.685181 L 87.110769,77.918596 L 93.891223,77.918596 L 93.086028,80.452308 L 92.344535,80.452308 C 92.344535,80.452308 92.49742,78.515935 90.9278,78.685181 L 90.9278,78.685181 M 97.033012,71.955165 C 86.991009,71.955165 78.801464,76.694052 78.801464,82.647528 C 78.801464,88.598515 86.945143,93.422025 96.989694,93.422025 C 107.03424,93.422025 114.99956,88.598515 114.99956,82.647528 C 114.99956,76.694052 107.07756,71.955165 97.033012,71.955165" />
</svg>
